<?xml version="1.0" encoding="utf-8"?>
<!-- Generator: Adobe Illustrator 15.1.0, SVG Export Plug-In . SVG Version: 6.00 Build 0)  -->
<!DOCTYPE svg PUBLIC "-//W3C//DTD SVG 1.1//EN" "http://www.w3.org/Graphics/SVG/1.1/DTD/svg11.dtd">
<svg version="1.1" id="Layer_1" xmlns="http://www.w3.org/2000/svg" xmlns:xlink="http://www.w3.org/1999/xlink" x="0px" y="0px"
	 width="800px" height="600px" viewBox="0 0 800 600" enable-background="new 0 0 800 600" xml:space="preserve">
<title>hamburger</title>
<path fill="#BFBFBF" d="M80.328,0h639.345c21.729,0,39.344,17.615,39.344,39.344v29.509c0,21.729-17.615,39.344-39.344,39.344
	H80.328c-21.729,0-39.345-17.615-39.345-39.344V39.344C40.983,17.615,58.598,0,80.328,0z"/>
<path fill="#BFBFBF" d="M80.328,245.902h639.345c21.729,0,39.344,17.615,39.344,39.345v29.508c0,21.729-17.615,39.344-39.344,39.344
	H80.328c-21.729,0-39.345-17.615-39.345-39.344v-29.508C40.983,263.517,58.598,245.902,80.328,245.902z"/>
<path fill="#BFBFBF" d="M80.328,491.803h639.345c21.729,0,39.344,17.615,39.344,39.345v29.508c0,21.729-17.615,39.344-39.344,39.344
	H80.328c-21.729,0-39.345-17.614-39.345-39.344v-29.508C40.983,509.418,58.598,491.803,80.328,491.803z"/>
</svg>
