<svg id="Layer_1" data-name="Layer 1" xmlns="http://www.w3.org/2000/svg" viewBox="0 0 187.62 92.33"><defs><style>.cls-1{fill:#ed1941;}.cls-2{fill:#231f20;}.cls-3{fill:#fff;}</style></defs><title>swlogo-large</title><path class="cls-1" d="M44.46,565.63c-18.57,0-20.61-11.74-7.11-28H36.11c-16,20-14.65,34.77,5.06,34.77s51.5-14.79,76.74-34.77h-1.17C92.42,553.89,63,565.63,44.46,565.63Zm92.23-85.54c-15.37,0-38.08,9-59.32,22.44a4.68,4.68,0,0,0-.57-0.14,4.9,4.9,0,0,0-5.54,3.75A4.35,4.35,0,0,0,75,511.29a4.9,4.9,0,0,0,5.54-3.74,4.26,4.26,0,0,0,.07-0.73c19.58-13,41.2-22,55.53-22,16,0,18.14,11.06,7.34,26.55h0.91C157.49,493.18,155.25,480.09,136.69,480.09Z" transform="translate(-12.62 -480.09)"/><path class="cls-2" d="M153.93,508.19a2.54,2.54,0,0,0,2.55-2.34,2.25,2.25,0,0,0-2.3-2.36,2.54,2.54,0,0,0-2.55,2.35A2.25,2.25,0,0,0,153.93,508.19Zm-83.77,6c1.15,0.1,1.24.7,0.69,2.29l-4.71,13.7c-0.77,2.27-.22,3.71,1.88,3.71h3.11l0.21-.59c-1.45-.08-1.28-0.85-0.51-3.11l5.65-16.57H70.37ZM31.34,534.2c6-.06,12.45-2.57,16.73-5.28,6.06-3.85,9.07-9.61,4.3-14.68C50,511.7,44,508.4,42.16,506.47c-1.39-1.5-1.92-3.2-.83-5.17,1.31-2.38,4.75-4.09,8.74-4.31h0.72c5,0.15,6.51,2.59,6.56,5.63a4.88,4.88,0,0,1-1.74,3.6l0.47,0.5c1.68-1.06,3.34-2.13,4.1-3.87a3.73,3.73,0,0,0-.23-3.67c-1.34-2.1-4.1-3.48-8.39-3.66a8.16,8.16,0,0,0-.84,0H50.43c-7.87.15-12.61,2.8-14.14,7.53a6.14,6.14,0,0,0,1.55,5.87c2.07,2.39,6.42,4.18,9.09,7A9.18,9.18,0,0,1,49,522.41c-0.46,5.35-6.46,8.54-14.34,8.61-9,.09-14.58-3.29-14.66-8.44-0.06-3.89,3.14-6.57,7.26-9.28l-0.62-.45c-4.16,2.19-9.29,4.89-11.25,9.36a6.07,6.07,0,0,0,.38,6C18.12,531.89,23.3,534.28,31.34,534.2Zm83.54-17.78-6,17.43h4.57l2.07-6.08c1.84-5,3.63-9.21,7.38-12,3.19-2.29,4.61-1.87,3,2.74l-5.34,15.31h4.77l1.22-3.63c2.11-6.12,4.22-11.52,8.56-14.7,2.67-1.92,4.22-1.35,2.71,3.06l-4.06,11.63c-1.38,4.06-.46,6.17,3.65,6.17h4l0.2-.55c-3.72-.09-4.56-1.45-3.15-5.6l3.73-10.82c2.55-7.34-3.71-7.28-7.17-5a22.77,22.77,0,0,0-4.68,4.65c2.27-7-3.84-6.76-7-4.7a19.88,19.88,0,0,0-4.87,4.59l1.83-5.38h-6.06l-0.2.53C115.34,514.21,115.43,514.81,114.88,516.42Zm-33.89,0-6,17.43h4.58l2.07-6.08c1.84-5,3.62-9.21,7.39-12,3.19-2.29,4.61-1.87,3,2.74l-5.34,15.31h4.77l1.22-3.63c2.11-6.12,4.22-11.52,8.56-14.7,2.67-1.92,4.22-1.35,2.71,3.06L100,530.21c-1.38,4.06-.47,6.17,3.65,6.17h4l0.2-.55c-3.72-.09-4.56-1.45-3.15-5.6l3.73-10.82c2.55-7.34-3.71-7.28-7.17-5a22.92,22.92,0,0,0-4.68,4.65c2.27-7-3.84-6.76-7-4.7A19.86,19.86,0,0,0,84.67,519l1.83-5.38H80.45l-0.2.53C81.44,514.21,81.54,514.81,81,516.42Zm64.93,17.43H149l0.16-.54c-1.45-.08-1.22-0.93-0.45-3.19l5.65-16.54h-6.13l-0.2.53c1.15,0.1,1.24.7,0.69,2.29L144,530.1C143.27,532.37,143.83,533.84,145.92,533.85Zm13-17.42-6,17.42h4.57l1.26-3.66c2-6,4.51-11.19,8.85-14.37,3.19-2.29,5-1.87,3.41,2.74l-4,11.64c-1.39,4.06-.45,6.18,3.67,6.18h4l0.2-.55c-3.72-.09-4.58-1.47-3.16-5.62l3.71-10.84c2.55-7.34-3.21-7.13-7.29-5a26.57,26.57,0,0,0-5.61,4.86l1.93-5.66h-6.07l-0.2.55C159.42,514.22,159.52,514.81,159,516.43ZM65.46,502.56l-9.35,27.57c-0.77,2.27-.22,3.71,1.88,3.72h3.55l0.2-.56c-1.71,0-1.78-.66-0.93-3.14l10.29-30.42H65l-0.2.55C65.92,500.38,66,501,65.46,502.56Zm13.92,47.15H75.32l0.19-12.08H73.86L73.65,551h5.71Zm-9.8-2A16,16,0,0,0,70.3,551H72a16.74,16.74,0,0,1-.78-3.37c-0.27-1.75-.82-2.7-1.89-3v0a3.59,3.59,0,0,0,2.37-3.45,3.39,3.39,0,0,0-1-2.62,4.64,4.64,0,0,0-3.25-1,10.22,10.22,0,0,0-2.39.26L64.87,551h1.65l0.09-5.81h0.64C68.67,545.19,69.29,545.86,69.58,547.7Zm-2.86-8.83a3.56,3.56,0,0,1,.86-0.08A2.18,2.18,0,0,1,70,541.32,2.56,2.56,0,0,1,67.32,544H66.63Zm22,5.12c0-2.8-.76-4.52-1.87-5.42a5.07,5.07,0,0,0-3.38-1,8.39,8.39,0,0,0-2.24.26L81,550.94a9.93,9.93,0,0,0,1.84.14,5.48,5.48,0,0,0,4-1.43C87.84,548.72,88.68,547.05,88.73,544Zm-5.4,5.81a3.71,3.71,0,0,1-.62,0l0.17-10.87a3.21,3.21,0,0,1,.77-0.08c2.32,0,3.41,1.85,3.35,5.22C86.94,548.6,85.16,549.81,83.33,549.81Zm112.49-36.25-0.2.64a7.79,7.79,0,0,0-3.69-1c-7.66-.13-11.25,4.32-13.3,10-2.72,7.5-.19,10.88,3,11,3,0.08,6.12-2.16,8.45-4.45l0,0a66.34,66.34,0,0,1-5.47,12c-9,16-27.24,29.61-37.81,29.6-11,0-13.2-12.12-5.49-27.28H91.21v1.28h47.5c-6.88,14.92-3.42,26.92,8.35,26.93,13.14,0,32.22-14,42.61-31.26a53.85,53.85,0,0,0,4.57-9.47h0l0,0q0.27-.75.5-1.48c2.08-6.2,5.47-16.47,5.47-16.47h-4.42Zm-4.47,12.62c-2.1,3-6,6.6-7.68,6.42-2.28-.24-2.23-3.1-0.22-8.92,1.48-4.29,4.45-9.45,8.26-9.44a4.59,4.59,0,0,1,3.23,1.33ZM39.29,544.07H12.62v1.28H39.29v-1.28ZM50,548.89H49.93a48.52,48.52,0,0,0-.76-5l-1.25-6.29h-1.4l-1.43,6.43c-0.39,1.71-.74,3.16-1,4.84H44.07c-0.17-1.65-.36-3.13-0.65-4.82l-1.12-6.45H40.6L43.16,551h1.57l1.52-6.45a45,45,0,0,0,.86-4.44h0c0.17,1.47.4,3,.68,4.38L49.11,551h1.63l3-13.37H52.13L50.83,544C50.55,545.5,50.27,547,50,548.89Zm13-4.68c0.07-4.26-1.37-6.74-3.84-6.74s-4.29,2.4-4.36,6.82,1.5,6.86,3.91,6.86h0C61,551.16,62.92,549.21,63,544.21Zm-4.15,5.6h0c-1.87,0-2.38-2.92-2.32-5.52s0.62-5.48,2.49-5.48,2.31,3,2.27,5.45S60.7,549.81,58.85,549.81Z" transform="translate(-12.62 -480.09)"/><path class="cls-3" d="M76.76,507.6a1.9,1.9,0,0,0,1.91-1.76,1.69,1.69,0,0,0-1.73-1.77A1.9,1.9,0,0,0,75,505.84a1.69,1.69,0,0,0,1.73,1.77" transform="translate(-12.62 -480.09)"/></svg>