<svg id="Layer_1" data-name="Layer 1" xmlns="http://www.w3.org/2000/svg" viewBox="0 0 168.75 136.32"><defs><style>.cls-1{fill:#ed1941;}.cls-2{fill:#231f20;}.cls-3{fill:#fff;}</style></defs><title>swlogo-black</title><path d="M98.84,326.76c-3.25-5.45-9.77-8.54-18.81-8.92-0.53,0-1.07-.08-1.64-0.08H77.5l-0.56,0c-16.7.46-27.33,6.71-30.77,18.08-1.43,4.73-.13,10.05,3.55,14.59,2.3,2.84,5.75,5.25,9.4,7.8s7.31,5.12,10.11,8.27c3.15,3.54,4.45,9.79,4.11,14.13-0.9,11.2-13.14,20.68-30.27,20.86H42.31c-17.82,0-29.84-8.3-30-19.39-0.11-8,2.07-11.28,8.88-18.32,2-2.08,5.42-3.34,4.44-4.85s-2.63-.54-5.85,1.38c-6.09,3.64-14.05,8.84-18.4,19.5a16,16,0,0,0,.89,14.79C7.79,403.91,19.68,409,35.74,409h0.87c13.74-.15,27.83-6.46,36.44-12.31s13.79-13.06,14.64-20.32c0.63-5.39-1.12-10.49-5.22-15.15-2.8-3.18-7.68-6.74-12.4-10.18-4-2.91-7.76-5.66-9.49-7.65-3-3.49-2.69-9-.79-12.74,2.62-5.09,8.23-8.2,16.28-8.67,0.51,0,1,0,1.46,0,8.65,0.28,14.83,3.45,15.76,9.65,0.42,2.77.69,6.27-2.43,9.91-1.52,1.77-.45,3.57,2.52,2.17a14.7,14.7,0,0,0,6.22-6.36C101.54,333.22,100,328.78,98.84,326.76Z" transform="translate(0 -302.95)"/><path class="cls-1" d="M120.32,403.26C103.81,415,78.93,426.47,53.18,426.47c-35,0-38.87-22.15-13.42-52.77H37.42C7.31,411.39,9.78,439.27,47,439.27c19.46,0,47.28-8.22,72.69-30.26C119.83,407.26,120.31,404.53,120.32,403.26Z" transform="translate(0 -302.95)"/><path class="cls-2" d="M167.39,351.82c3.45-6.48.06-11.37-7.57-11.37a34.14,34.14,0,0,0-5.31.44c-2.77.5-2.6,1.71-1.88,2.21s3.24,0.24,4.88,2.86c0.88,1.39,1.38,3.58-.57,7.61-5.51,11.34-18.63,36.84-18.63,36.84s0.92-24.3,1-36.3c0-6.39-3.2-6.64-5.37-6.56-3,0-5.26.9-7.84,4.51L103.67,390.7l2.24-33.84c0.42-5.61-1.89-8.23-9-8.23,0,0-5.21.05-7.29,0-3.25-.08-3.62,2.66-0.2,3.14,4.49,0.63,6.19,2.64,6.19,7.65,0,2.28-2.48,46.47-2.48,46.47a0.18,0.18,0,0,1,0,.08c-0.1,1.67.88,3.15,2.35,3.15,2.09,0,4.29-1.93,5.31-3.7l28.7-48.55s-2,37.47-3.18,49.22c-0.2,1.91-.65,6.34,1.85,6.34,2.88,0,4-1.27,6.9-5.91C135.1,406.53,154.88,375.29,167.39,351.82Z" transform="translate(0 -302.95)"/><path class="cls-1" d="M164,332c0.83-21.52-20.75-34.76-44-26.67-5,1.75-7.56,0-12.07,1.54a2.59,2.59,0,0,1,.37.52c0.29,0.75.46,1.5,0.71,2.24a2.48,2.48,0,0,1,2.59,1.47c0,0.06,0,.12.07,0.17a2.42,2.42,0,0,1,.14.33c0.2,1,.51,1.86.7,2.81a2.56,2.56,0,0,1-.08.85c4.12-1.88,8.14-.13,11.78-1.51,20.06-7.61,36.17,3.5,37.69,18.24C162.56,332,163.26,332,164,332Z" transform="translate(0 -302.95)"/><ellipse class="cls-1" cx="114.7" cy="313.99" rx="10.72" ry="10.5" transform="translate(-203.15 -92.48) rotate(-51.89)"/><circle class="cls-3" cx="115.5" cy="6.66" r="3.37"/></svg>